# xmcd CD database file
#
# Track frame offsets:
#	150
#	17882
#	33798
#	52022
#	77101
#	95370
#	116942
#	133427
#	155403
#	170372
#	189376
#	207366
#	228839
#	254372
#	272390
#	294660
#
# Disc length: 4213 seconds
#
# Revision: 0
# Processed by: cddbd v1.5.1PL2 Copyright (c) Steve Scherf et al.
# Submitted via: CDex 1.50beta8
#
DISCID=e0107310
DTITLE=ZONE - ura E 〜Complete B side Melodies〜
DYEAR=2006
DGENRE=JRock
TTITLE0=fortune
TTITLE1=mind
TTITLE2=風のはじまる場所
TTITLE3=愛花
TTITLE4=Once Again
TTITLE5=JET
TTITLE6=GO!
TTITLE7=Like
TTITLE8=空想と現実の夜明け
TTITLE9=ROCKING
TTITLE10=For Tomorrow
TTITLE11=Sae Zuri
TTITLE12=H・A・N・A・B・I 〜君がいた夏〜 Ocean Version
TTITLE13=アルバム
TTITLE14=旅立ち・・・
TTITLE15=一緒にいたかった
EXTD=YEAR: 2006
EXTT0=
EXTT1=
EXTT2=
EXTT3=
EXTT4=
EXTT5=
EXTT6=
EXTT7=
EXTT8=
EXTT9=
EXTT10=
EXTT11=
EXTT12=
EXTT13=
EXTT14=
EXTT15=
PLAYORDER=
